# xmcd
#
# Track frame offsets:
#	150
#	17497
#	33404
#	51539
#	69543
#	133885
#	156013
#	178295
#	190668
#	202357
#	217872
#	234426
#	245702
#	263954
#	290962
#	304745
#	316932
#
# Disc length: 4469 seconds
#
# Revision: 2
# Processed by: cddbd v1.5.1PL2 Copyright (c) Steve Scherf et al.
# Submitted via: audiograbber 1.83.01
#
DISCID=0a117311
DTITLE=diverse Interpreten - Oldies 5
DYEAR=1900
DGENRE=
TTITLE0=Ich Lieb' Dich Überhaupt Nicht Mehr
TTITLE1=Sonderzug Nach Pankow
TTITLE2=Wozu sind Kriege da
TTITLE3=Moskau
TTITLE4=Pink Panter Show Musik
TTITLE5=I Wanna Dance With Somebody
TTITLE6=Hiroshima
TTITLE7=Puhdys - Geh Zu Ihr
TTITLE8=Have You Seen Your Mother, Baby
TTITLE9=Sugar baby love
TTITLE10=Tonight
TTITLE11=Sweets for my sweet
TTITLE12=Sixteens
TTITLE13=Bitter Sweet Symphony
TTITLE14=Beverly Hills Cop
TTITLE15=Talkin' about a revolution
TTITLE16=Hinter dem Horizont
EXTD=
EXTT0=
EXTT1=
EXTT2=
EXTT3=
EXTT4=
EXTT5=
EXTT6=
EXTT7=
EXTT8=
EXTT9=
EXTT10=
EXTT11=
EXTT12=
EXTT13=
EXTT14=
EXTT15=
EXTT16=
PLAYORDER=
